:SAMPLES-PER-SECOND 30
:FULLY-SPECIFIED
:DEGREES
1520
root  56.2934 38.3037 7.26762 149.072 -86.116 -155.311
RightUpLeg  -11.9733 -9.62327 -1.44587
RightLeg  15.3003 4.15227 1.98185
RightFoot  1.76899 -0.091711 0.903611
RightToes  5.82063e-011 0 -3.6325e-017
Spine  1.5911 -1.35161 9.07459
Spine1  12.4363 -0.797525 -1.11241
HEad  2.11322 -32.6389 -16.2719
LeftShoulder1  0.0851148 3.25295 -27.7261
LeftArm  -23.2156 11.0661 -35.2975
LeftForeArm  104.232 -75.9668 -127.962
LeftHand  -0.0482816 0.550468 1.0759
RightShoulder  -0.498005 -5.08026 24.776
RightArm  -12.1391 -2.61907 35.0301
RightForeArm  107.237 68.3806 147.961
RightHand  -0.186066 -1.11717 -4.78073
LeftUpLeg  12.1394 -3.1486 0.563892
LeftLeg  21.7303 -11.9854 -4.9762
LeftFoot  -18.0899 0.331132 3.8118
LeftToes  1.54581e-011 7.46816e-011 -4.69922e-011
1521
root  55.6248 38.2829 6.94716 133.326 -86.3011 -139.195
RightUpLeg  -11.6108 -9.44411 -0.521232
RightLeg  16.4435 3.06184 2.02917
RightFoot  -0.0655758 -0.0707817 0.718219
RightToes  5.82063e-011 0 -3.6325e-017
Spine  1.38012 -1.73309 10.4476
Spine1  12.6843 -1.19111 -0.231619
HEad  0.318165 -33.1833 -14.8643
LeftShoulder1  0.0812371 3.26572 -27.974
LeftArm  -23.4056 11.0722 -35.9874
LeftForeArm  101.98 -76.4017 -125.526
LeftHand  -0.0144896 0.845909 0.25449
RightShoulder  -0.523049 -5.1702 24.5847
RightArm  -11.8873 -2.44745 35.2984
RightForeArm  109.5 68.2995 148.313
RightHand  -0.0919309 -3.13853 -3.78983
LeftUpLeg  8.70468 -3.11823 2.48194
LeftLeg  29.5672 -13.2751 -7.73187
LeftFoot  -15.9654 0.146298 0.966885
LeftToes  1.54581e-011 7.46816e-011 -4.69922e-011
1522
root  55.0013 38.264 6.62815 118.682 -86.1627 -124.23
RightUpLeg  -11.0004 -9.27549 0.254122
RightLeg  17.0461 2.20327 2.23276
RightFoot  -1.88037 -0.0789833 0.795262
RightToes  5.82063e-011 0 -3.6325e-017
Spine  2.05473 -2.03377 12.1243
Spine1  11.7219 -1.23486 -0.186821
HEad  -0.232391 -33.1514 -13.8692
LeftShoulder1  0.0883904 3.24619 -28.1774
LeftArm  -22.8098 10.7741 -36.1511
LeftForeArm  100.789 -76.6633 -123.979
LeftHand  -0.0405472 0.793196 0.921091
RightShoulder  -0.541916 -5.22139 24.7677
RightArm  -11.6341 -2.78616 35.2751
RightForeArm  110.327 67.9663 148.915
RightHand  -0.155437 -2.48446 -5.58909
LeftUpLeg  4.44884 -2.81296 4.43907
LeftLeg  38.1146 -13.6579 -10.8754
LeftFoot  -11.3442 0.0663183 -3.46767
LeftToes  1.54581e-011 7.46816e-011 -4.69922e-011
1523
root  54.4021 38.2799 6.37398 102.88 -86.55 -108.072
RightUpLeg  -10.5103 -9.82772 0.12512
RightLeg  17.8779 1.75269 2.71513
RightFoot  -3.46846 -0.0750349 0.743842
RightToes  5.82063e-011 0 -3.6325e-017
Spine  2.53447 -2.47516 12.889
Spine1  10.6984 -1.49535 0.0783899
HEad  -0.829548 -33.6448 -12.9324
LeftShoulder1  0.209881 2.88678 -27.8513
LeftArm  -22.8184 10.5767 -36.3895
LeftForeArm  100.386 -76.8504 -122.93
LeftHand  -0.0241804 1.1208 0.502582
RightShoulder  -0.530194 -5.17897 24.8595
RightArm  -12.4865 -3.07105 34.491
RightForeArm  110.048 67.8534 149.058
RightHand  -0.0577821 -3.60824 -2.89073
LeftUpLeg  -0.51253 -2.59934 5.28853
LeftLeg  45.9977 -11.6898 -12.2872
LeftFoot  -4.91199 0.407742 -6.49268
LeftToes  1.54581e-011 7.46816e-011 -4.69922e-011
1524
root  53.8472 38.272 6.10632 90.0087 -86.6052 -95.5299
RightUpLeg  -9.36549 -9.96102 0.143779
RightLeg  18.5444 1.13932 2.89111
RightFoot  -4.93179 -0.07338 0.730216
RightToes  5.82063e-011 0 -3.6325e-017
Spine  3.98966 -2.92428 13.4651
Spine1  9.46527 -1.63146 0.282429
HEad  -1.6092 -34.1792 -11.9032
LeftShoulder1  0.208136 2.88365 -27.394
LeftArm  -22.6541 10.0424 -36.5347
LeftForeArm  99.1216 -76.9706 -121.967
LeftHand  -0.0158597 0.816267 0.275559
RightShoulder  -0.468255 -4.98521 24.7379
RightArm  -12.5996 -3.48824 34.3568
RightForeArm  110.472 67.6072 149.468
RightHand  -0.101702 -3.14177 -4.05232
LeftUpLeg  -4.46645 -2.22733 5.93586
LeftLeg  52.4082 -8.95496 -11.8036
LeftFoot  -0.401483 0.860363 -9.09426
LeftToes  1.54581e-011 7.46816e-011 -4.69922e-011
1525
root  53.2502 38.4096 5.81946 87.4443 -87.0222 -93.1438
RightUpLeg  -7.61885 -9.79755 -0.097976
RightLeg  17.6083 0.951047 2.88956
RightFoot  -5.64789 -0.0724862 0.683258
RightToes  5.82063e-011 0 -3.6325e-017
Spine  4.40233 -2.73134 13.1568
Spine1  9.30637 -1.41682 0.418765
HEad  -2.4956 -34.5946 -11.2872
LeftShoulder1  0.204781 2.89928 -27.7144
LeftArm  -22.1096 8.58415 -36.5024
LeftForeArm  97.6476 -77.281 -119.83
LeftHand  0.0195761 1.01855 -0.661489
RightShoulder  -0.40991 -4.81153 24.4142
RightArm  -13.034 -3.31095 34.6932
RightForeArm  110.116 67.5811 149.472
RightHand  -0.199366 -1.91939 -6.51323
LeftUpLeg  -7.85524 -1.02023 5.94322
LeftLeg  56.7148 -6.01057 -9.30561
LeftFoot  -0.906164 0.654144 -7.06053
LeftToes  1.54581e-011 7.46816e-011 -4.69922e-011
